<?xml version="1.0" encoding="UTF-8" standalone="no"?>
<svg
   width="16"
   height="16"
   version="1.1"
   id="svg1"
   sodipodi:docname="ProjectList.svg"
   inkscape:version="1.3.2 (091e20e, 2023-11-25, custom)"
   xmlns:inkscape="http://www.inkscape.org/namespaces/inkscape"
   xmlns:sodipodi="http://sodipodi.sourceforge.net/DTD/sodipodi-0.dtd"
   xmlns="http://www.w3.org/2000/svg"
   xmlns:svg="http://www.w3.org/2000/svg">
  <defs
     id="defs1">
    <mask
       maskUnits="userSpaceOnUse"
       id="mask1">
      <rect
         style="display:inline;opacity:1;fill:#e0e0e0;fill-opacity:1;stroke-width:0.3;stroke-linecap:round;stroke-linejoin:round;stroke-dashoffset:2.00082"
         id="rect2"
         width="14"
         height="14"
         x="1"
         y="1"
         ry="1.8406855" />
    </mask>
  </defs>
  <sodipodi:namedview
     id="namedview1"
     pagecolor="#505050"
     bordercolor="#eeeeee"
     borderopacity="1"
     inkscape:showpageshadow="0"
     inkscape:pageopacity="0"
     inkscape:pagecheckerboard="0"
     inkscape:deskcolor="#505050"
     inkscape:zoom="53.78431"
     inkscape:cx="6.3215462"
     inkscape:cy="8.2644921"
     inkscape:window-width="2560"
     inkscape:window-height="1417"
     inkscape:window-x="-8"
     inkscape:window-y="-8"
     inkscape:window-maximized="1"
     inkscape:current-layer="svg1" />
  <path
     fill="#e0e0e0"
     d="M 1,1 V 15 H 15 V 1 Z M 4,8 C 5.104,8 6,8.896 6,10 6,11.104 5.104,12 4,12 2.896,12 2,11.104 2,10 2,8.896 2.896,8 4,8 Z m 9,1 v 2 H 7 V 9 Z M 4,2 C 5.104,2 6,2.896 6,4 6,5.104 5.104,6 4,6 2.896,6 2,5.104 2,4 2,2.896 2.896,2 4,2 Z m 3,1 h 6 V 5 H 7 Z"
     id="path1"
     style="display:inline"
     mask="url(#mask1)" />
</svg>
