<?xml version="1.0" encoding="UTF-8" standalone="no"?>
<svg
   xml:space="preserve"
   width="16"
   height="16"
   version="1.1"
   id="svg2"
   sodipodi:docname="browse_folder.svg"
   inkscape:version="1.4.2 (f4327f4, 2025-05-13)"
   xmlns:inkscape="http://www.inkscape.org/namespaces/inkscape"
   xmlns:sodipodi="http://sodipodi.sourceforge.net/DTD/sodipodi-0.dtd"
   xmlns="http://www.w3.org/2000/svg"
   xmlns:svg="http://www.w3.org/2000/svg"><defs
     id="defs2" /><sodipodi:namedview
     id="namedview2"
     pagecolor="#505050"
     bordercolor="#ffffff"
     borderopacity="1"
     inkscape:showpageshadow="0"
     inkscape:pageopacity="0"
     inkscape:pagecheckerboard="1"
     inkscape:deskcolor="#505050"
     inkscape:zoom="76.125"
     inkscape:cx="8.0591133"
     inkscape:cy="8.1444992"
     inkscape:window-width="2560"
     inkscape:window-height="1417"
     inkscape:window-x="-8"
     inkscape:window-y="-8"
     inkscape:window-maximized="1"
     inkscape:current-layer="svg2" /><path
     fill="#e0e0e0"
     d="M2 2a1 1 0 0 0-1 1v10a1 1 0 0 0 1 1h3.738a2.5 2.5 0 0 1-.238-1.074 2.49 2.49 0 0 1 2.5-2.5c.565 0 1.083.187 1.5.5.417-.313.935-.5 1.5-.5s1.083.187 1.5.5a2.5 2.5 0 0 1 2.5-.295V6a1 1 0 0 0-1-1h-4a1 1 0 0 1-1-1V3a1 1 0 0 0-1-1Zm5.408 13.355.074.018q-.038-.008-.074-.018m.35.06"
     id="path1"
     style="fill:#ffffff;fill-opacity:1" /><path
     fill="#e0e0e0"
     d="M9 13a1 1 0 1 1-2 0 1 1 0 0 1 2 0m3 0a1 1 0 1 1-2 0 1 1 0 0 1 2 0m3 0a1 1 0 1 1-2 0 1 1 0 0 1 2 0"
     id="path2"
     style="fill:#ffffff;fill-opacity:1" /></svg>
