<?xml version="1.0" encoding="UTF-8" standalone="no"?>
<svg
   width="16"
   height="16"
   version="1.1"
   id="svg2"
   sodipodi:docname="godot.svg"
   inkscape:version="1.3.2 (091e20e, 2023-11-25, custom)"
   xmlns:inkscape="http://www.inkscape.org/namespaces/inkscape"
   xmlns:sodipodi="http://sodipodi.sourceforge.net/DTD/sodipodi-0.dtd"
   xmlns="http://www.w3.org/2000/svg"
   xmlns:svg="http://www.w3.org/2000/svg">
  <defs
     id="defs2" />
  <sodipodi:namedview
     id="namedview2"
     pagecolor="#505050"
     bordercolor="#eeeeee"
     borderopacity="1"
     inkscape:showpageshadow="0"
     inkscape:pageopacity="0"
     inkscape:pagecheckerboard="0"
     inkscape:deskcolor="#505050"
     inkscape:zoom="64"
     inkscape:cx="5.078125"
     inkscape:cy="10.226562"
     inkscape:window-width="2560"
     inkscape:window-height="1417"
     inkscape:window-x="-8"
     inkscape:window-y="-8"
     inkscape:window-maximized="1"
     inkscape:current-layer="svg2" />
  <g
     fill="#ffffff"
     transform="matrix(0.01563,0,0,0.01563,0,1.3921165)"
     id="g2">
    <path
       d="m 105,673 c 271.31039,39.83553 542.02292,43.83548 814,0 V 427 c 20,-26 38.66667,-53 56,-81 -23.33333,-39.33333 -51,-75.33333 -83,-108 -28.66667,13.33333 -56,29 -82,47 -26.66667,-24.66667 -56,-46 -88,-64 4.66667,-34 7.33333,-68 8,-102 -39.33333,-18.66667 -80.33333,-32.666667 -123,-42 -17.33333,28.66667 -32.66667,58.33333 -46,89 -32.66667,-4.66667 -65.33333,-4.66667 -98,0 -13.33333,-30.66667 -28.66667,-60.33333 -46,-89 -42.66667,9.333333 -83.66667,23.33333 -123,42 0.66667,34 3.33333,68 8,102 -32,18 -61.33333,39.33333 -88,64 -26,-18 -53.33333,-33.66667 -82,-47 -32,32.66667 -59.666667,68.66667 -83,108 17.333333,28 36,55 56,81 z M 725,436 c 49.70566,0 89.99996,40.29437 89.99996,90 0,49.70563 -40.2943,90 -89.99996,90 -49.70566,0 -89.99996,-40.29437 -89.99996,-90 0,-49.70563 40.2943,-90 89.99996,-90 z m -426,0 c 49.70566,0 89.99996,40.29437 89.99996,90 0,49.70563 -40.2943,90 -89.99996,90 -49.70566,0 -89.99996,-40.29437 -89.99996,-90 0,-49.70563 40.2943,-90 89.99996,-90 z m 184,78 c 0,-34 58,-34 58,0 v 86 c 0,34 -58,34 -58,0 z"
       id="path1"
       sodipodi:nodetypes="cccccccccccccccccccsssssssssssssss" />
  </g>
</svg>
