<?xml version="1.0" encoding="UTF-8" standalone="no"?>
<svg
   width="16"
   height="16"
   version="1.1"
   id="svg2"
   sodipodi:docname="script.svg"
   inkscape:version="1.4.2 (f4327f4, 2025-05-13)"
   xmlns:inkscape="http://www.inkscape.org/namespaces/inkscape"
   xmlns:sodipodi="http://sodipodi.sourceforge.net/DTD/sodipodi-0.dtd"
   xmlns="http://www.w3.org/2000/svg"
   xmlns:svg="http://www.w3.org/2000/svg">
  <defs
     id="defs2" />
  <sodipodi:namedview
     id="namedview2"
     pagecolor="#505050"
     bordercolor="#ffffff"
     borderopacity="1"
     inkscape:showpageshadow="0"
     inkscape:pageopacity="0"
     inkscape:pagecheckerboard="1"
     inkscape:deskcolor="#505050"
     inkscape:zoom="76.125"
     inkscape:cx="7.8226601"
     inkscape:cy="7.9605911"
     inkscape:window-width="2560"
     inkscape:window-height="1417"
     inkscape:window-x="-8"
     inkscape:window-y="-8"
     inkscape:window-maximized="1"
     inkscape:current-layer="svg2" />
  <path
     fill="#e0e0e0"
     d="M6 1a2 2 0 0 0-2 2v7H1v3a2 2 0 0 0 2 2h7a2 2 0 0 0 2-2V5h3V3a2 2 0 0 0-2-2z"
     id="path1"
     style="fill:#ffffff;fill-opacity:1" />
  <path
     fill-opacity=".2"
     d="M6 1a2 2 0 0 0-2 2v7H1v3a2 2 0 1 0 4 0V3a1 1 0 0 1 2 0v3h5V5H8V3a2 2 0 0 0-2-2zM2 11h2v2a1 1 0 0 1-2 0z"
     id="path2"
     style="stroke:none;stroke-opacity:1;stroke-width:0.6;stroke-dasharray:none;fill:#d9d9d9;fill-opacity:1" />
</svg>
