<?xml version="1.0" encoding="UTF-8" standalone="no"?>
<svg
   width="16"
   height="16"
   viewBox="0 0 24 24"
   fill="none"
   stroke="#ffffff"
   stroke-width="2"
   stroke-linecap="round"
   stroke-linejoin="round"
   class="lucide lucide-square-check-icon lucide-square-check"
   version="1.1"
   id="svg1"
   sodipodi:docname="square-check.svg"
   inkscape:version="1.4.2 (f4327f4, 2025-05-13)"
   xmlns:inkscape="http://www.inkscape.org/namespaces/inkscape"
   xmlns:sodipodi="http://sodipodi.sourceforge.net/DTD/sodipodi-0.dtd"
   xmlns="http://www.w3.org/2000/svg"
   xmlns:svg="http://www.w3.org/2000/svg">
  <defs
     id="defs1" />
  <sodipodi:namedview
     id="namedview1"
     pagecolor="#505050"
     bordercolor="#ffffff"
     borderopacity="1"
     inkscape:showpageshadow="0"
     inkscape:pageopacity="0"
     inkscape:pagecheckerboard="1"
     inkscape:deskcolor="#505050"
     inkscape:zoom="38.0625"
     inkscape:cx="3.9014778"
     inkscape:cy="9.090312"
     inkscape:window-width="2560"
     inkscape:window-height="1417"
     inkscape:window-x="-8"
     inkscape:window-y="-8"
     inkscape:window-maximized="1"
     inkscape:current-layer="svg1" />
  <path
     id="path1"
     style="baseline-shift:baseline;display:inline;overflow:visible;vector-effect:none;fill:#ffffff;stroke:none;stroke-linecap:butt;stroke-linejoin:miter;enable-background:accumulate;stop-color:#000000;stop-opacity:1;opacity:1"
     d="M 5.0009766 2.0009766 C 3.3562738 2.0009766 2.0009766 3.3562738 2.0009766 5.0009766 L 2.0009766 18.999023 C 2.0009766 20.643726 3.3562738 21.999023 5.0009766 21.999023 L 18.999023 21.999023 C 20.643726 21.999023 21.999023 20.643726 21.999023 18.999023 L 21.999023 5.0009766 C 21.999023 3.3562738 20.643726 2.0009766 18.999023 2.0009766 L 5.0009766 2.0009766 z M 16.025391 7.8164062 A 1.5 1.5 0 0 1 17.085938 8.2558594 A 1.5 1.5 0 0 1 17.085938 10.376953 L 11.71875 15.744141 A 1.50015 1.50015 0 0 1 9.5976562 15.744141 L 6.9140625 13.060547 A 1.5 1.5 0 0 1 6.9140625 10.939453 A 1.5 1.5 0 0 1 9.0351562 10.939453 L 10.658203 12.5625 L 14.964844 8.2558594 A 1.5 1.5 0 0 1 16.025391 7.8164062 z " />
</svg>
